<?xml version="1.0" encoding="UTF-8"?>
<svg xmlns="http://www.w3.org/2000/svg" xmlns:xlink="http://www.w3.org/1999/xlink" width="51px" height="51px" viewBox="0 0 51 51" version="1.1">
<g id="surface1">
<path style=" stroke:none;fill-rule:nonzero;fill:rgb(0%,0%,0%);fill-opacity:1;" d="M 39.03125 0 L 36.023438 0 C 35.652344 0 35.355469 0.300781 35.355469 0.667969 L 35.355469 3.5625 L 32.90625 3.5625 L 32.90625 0.667969 C 32.90625 0.300781 32.609375 0 32.238281 0 L 27.28125 0 C 26.910156 0 26.613281 0.300781 26.613281 0.667969 L 26.613281 3.5625 L 24.164062 3.5625 L 24.164062 0.667969 C 24.164062 0.300781 23.867188 0 23.496094 0 L 18.539062 0 C 18.167969 0 17.871094 0.300781 17.871094 0.667969 L 17.871094 3.5625 L 15.421875 3.5625 L 15.421875 0.667969 C 15.421875 0.300781 15.125 0 14.753906 0 L 11.96875 0 C 11.601562 0 11.300781 0.300781 11.300781 0.667969 L 11.300781 11.136719 C 11.300781 11.503906 11.601562 11.804688 11.96875 11.804688 L 14.308594 11.804688 L 14.308594 50.332031 C 14.308594 50.699219 14.609375 51 14.976562 51 L 36.023438 51 C 36.390625 51 36.691406 50.699219 36.691406 50.332031 L 36.691406 11.804688 L 39.03125 11.804688 C 39.398438 11.804688 39.699219 11.503906 39.699219 11.136719 L 39.699219 0.667969 C 39.699219 0.300781 39.398438 0 39.03125 0 Z M 20.988281 49.664062 L 18.316406 49.664062 L 18.316406 44.097656 C 18.316406 43.359375 18.917969 42.761719 19.652344 42.761719 C 20.390625 42.761719 20.988281 43.359375 20.988281 44.097656 Z M 35.355469 49.664062 L 22.328125 49.664062 L 22.328125 44.097656 C 22.328125 42.621094 21.128906 41.421875 19.652344 41.421875 C 18.179688 41.421875 16.980469 42.621094 16.980469 44.097656 L 16.980469 49.664062 L 15.644531 49.664062 L 15.644531 11.804688 L 35.355469 11.804688 Z M 38.363281 10.46875 L 12.636719 10.46875 L 12.636719 1.335938 L 14.085938 1.335938 L 14.085938 4.230469 C 14.085938 4.601562 14.386719 4.898438 14.753906 4.898438 L 18.539062 4.898438 C 18.90625 4.898438 19.207031 4.601562 19.207031 4.230469 L 19.207031 1.335938 L 22.828125 1.335938 L 22.828125 4.230469 C 22.828125 4.601562 23.128906 4.898438 23.496094 4.898438 L 27.28125 4.898438 C 27.648438 4.898438 27.949219 4.601562 27.949219 4.230469 L 27.949219 1.335938 L 31.570312 1.335938 L 31.570312 4.230469 C 31.570312 4.601562 31.871094 4.898438 32.238281 4.898438 L 36.023438 4.898438 C 36.390625 4.898438 36.691406 4.601562 36.691406 4.230469 L 36.691406 1.335938 L 38.359375 1.335938 L 38.359375 10.46875 Z M 38.363281 10.46875 "/>
<path style=" stroke:none;fill-rule:nonzero;fill:rgb(0%,0%,0%);fill-opacity:1;" d="M 18.375 22.492188 L 21.269531 22.492188 C 21.636719 22.492188 21.9375 22.195312 21.9375 21.824219 L 21.9375 17.929688 C 21.9375 16.761719 20.988281 15.8125 19.820312 15.8125 C 18.65625 15.8125 17.707031 16.761719 17.707031 17.929688 L 17.707031 21.824219 C 17.707031 22.195312 18.003906 22.492188 18.375 22.492188 Z M 19.042969 17.929688 C 19.042969 17.5 19.390625 17.148438 19.820312 17.148438 C 20.25 17.148438 20.601562 17.5 20.601562 17.929688 L 20.601562 21.15625 L 19.042969 21.15625 Z M 19.042969 17.929688 "/>
<path style=" stroke:none;fill-rule:nonzero;fill:rgb(0%,0%,0%);fill-opacity:1;" d="M 24.050781 30.957031 L 26.949219 30.957031 C 27.316406 30.957031 27.617188 30.65625 27.617188 30.289062 L 27.617188 26.390625 C 27.617188 25.222656 26.667969 24.273438 25.5 24.273438 C 24.332031 24.273438 23.382812 25.222656 23.382812 26.390625 L 23.382812 30.289062 C 23.382812 30.65625 23.683594 30.957031 24.050781 30.957031 Z M 24.71875 26.390625 C 24.71875 25.960938 25.070312 25.613281 25.5 25.613281 C 25.929688 25.613281 26.28125 25.960938 26.28125 26.390625 L 26.28125 29.621094 L 24.71875 29.621094 Z M 24.71875 26.390625 "/>
<path style=" stroke:none;fill-rule:nonzero;fill:rgb(0%,0%,0%);fill-opacity:1;" d="M 29.730469 39.417969 L 32.625 39.417969 C 32.996094 39.417969 33.292969 39.121094 33.292969 38.75 L 33.292969 34.855469 C 33.292969 33.6875 32.34375 32.738281 31.179688 32.738281 C 30.011719 32.738281 29.0625 33.6875 29.0625 34.855469 L 29.0625 38.75 C 29.0625 39.121094 29.363281 39.417969 29.730469 39.417969 Z M 30.398438 34.855469 C 30.398438 34.425781 30.75 34.074219 31.179688 34.074219 C 31.609375 34.074219 31.957031 34.425781 31.957031 34.855469 L 31.957031 38.082031 L 30.398438 38.082031 Z M 30.398438 34.855469 "/>
</g>
</svg>
