<?xml version="1.0" encoding="UTF-8"?>
<svg xmlns="http://www.w3.org/2000/svg" xmlns:xlink="http://www.w3.org/1999/xlink" width="33px" height="33px" viewBox="0 0 33 33" version="1.1">
<g id="surface1">
<path style=" stroke:none;fill-rule:nonzero;fill:rgb(0%,0%,0%);fill-opacity:1;" d="M 17.34375 22.488281 C 17.34375 22.953125 16.96875 23.332031 16.5 23.332031 C 16.03125 23.332031 15.652344 22.953125 15.652344 22.488281 C 15.652344 22.019531 16.03125 21.640625 16.5 21.640625 C 16.96875 21.640625 17.34375 22.019531 17.34375 22.488281 Z M 17.34375 22.488281 "/>
<path style=" stroke:none;fill-rule:nonzero;fill:rgb(0%,0%,0%);fill-opacity:1;" d="M 10.105469 22.488281 C 10.105469 22.953125 9.726562 23.332031 9.257812 23.332031 C 8.789062 23.332031 8.410156 22.953125 8.410156 22.488281 C 8.410156 22.019531 8.789062 21.640625 9.257812 21.640625 C 9.726562 21.640625 10.105469 22.019531 10.105469 22.488281 Z M 10.105469 22.488281 "/>
<path style=" stroke:none;fill-rule:nonzero;fill:rgb(0%,0%,0%);fill-opacity:1;" d="M 24.589844 22.488281 C 24.589844 22.953125 24.210938 23.332031 23.742188 23.332031 C 23.277344 23.332031 22.898438 22.953125 22.898438 22.488281 C 22.898438 22.019531 23.277344 21.640625 23.742188 21.640625 C 24.210938 21.640625 24.589844 22.019531 24.589844 22.488281 Z M 24.589844 22.488281 "/>
<path style=" stroke:none;fill-rule:nonzero;fill:rgb(0%,0%,0%);fill-opacity:1;" d="M 16.5 10.921875 C 15.394531 10.921875 14.527344 12.078125 14.527344 13.558594 C 14.527344 15.035156 15.394531 16.195312 16.5 16.195312 C 17.605469 16.195312 18.472656 15.035156 18.472656 13.558594 C 18.472656 12.078125 17.605469 10.921875 16.5 10.921875 Z M 16.5 15.054688 C 16.105469 15.054688 15.664062 14.414062 15.664062 13.558594 C 15.664062 12.699219 16.105469 12.058594 16.5 12.058594 C 16.894531 12.058594 17.335938 12.699219 17.335938 13.558594 C 17.335938 14.414062 16.894531 15.054688 16.5 15.054688 Z M 16.5 15.054688 "/>
<path style=" stroke:none;fill-rule:nonzero;fill:rgb(0%,0%,0%);fill-opacity:1;" d="M 30.761719 6.878906 C 29.527344 6.878906 28.519531 7.882812 28.519531 9.117188 C 28.519531 9.363281 28.5625 9.601562 28.632812 9.820312 C 27.90625 10.457031 27.167969 10.980469 26.433594 11.382812 C 26.160156 11.535156 26.058594 11.878906 26.210938 12.15625 C 26.359375 12.429688 26.707031 12.53125 26.980469 12.378906 C 27.746094 11.960938 28.511719 11.425781 29.261719 10.785156 C 29.472656 10.976562 29.722656 11.125 29.992188 11.222656 L 28.070312 16.914062 C 28.0625 16.914062 28.050781 16.914062 28.042969 16.914062 L 10.140625 16.914062 C 9.828125 16.914062 9.574219 17.167969 9.574219 17.480469 C 9.574219 17.796875 9.828125 18.050781 10.140625 18.050781 L 28.042969 18.050781 C 28.121094 18.050781 28.199219 18.0625 28.273438 18.089844 C 28.558594 18.1875 28.761719 18.457031 28.761719 18.773438 C 28.761719 19.167969 28.441406 19.492188 28.042969 19.492188 L 4.957031 19.492188 C 4.558594 19.492188 4.238281 19.167969 4.238281 18.773438 C 4.238281 18.457031 4.441406 18.1875 4.726562 18.089844 C 4.800781 18.0625 4.878906 18.050781 4.957031 18.050781 L 7.867188 18.050781 C 8.179688 18.050781 8.433594 17.796875 8.433594 17.480469 C 8.433594 17.167969 8.179688 16.914062 7.867188 16.914062 L 4.957031 16.914062 C 4.949219 16.914062 4.9375 16.914062 4.929688 16.914062 L 3.007812 11.222656 C 3.277344 11.125 3.527344 10.976562 3.738281 10.785156 C 4.609375 11.53125 5.496094 12.128906 6.378906 12.570312 C 7.863281 13.3125 9.296875 13.578125 10.628906 13.355469 C 12.597656 13.027344 14.308594 11.65625 15.714844 9.277344 C 15.820312 9.316406 15.933594 9.351562 16.046875 9.375 C 16.046875 9.375 16.050781 9.375 16.050781 9.375 C 16.347656 9.433594 16.652344 9.433594 16.949219 9.375 C 16.949219 9.375 16.953125 9.375 16.953125 9.375 C 17.066406 9.351562 17.179688 9.316406 17.289062 9.277344 C 18.253906 10.914062 19.375 12.082031 20.617188 12.75 C 21.800781 13.386719 23.101562 13.578125 24.480469 13.316406 C 24.789062 13.257812 24.992188 12.957031 24.933594 12.648438 C 24.875 12.339844 24.578125 12.136719 24.269531 12.199219 C 21.898438 12.648438 19.863281 11.445312 18.21875 8.613281 C 18.542969 8.226562 18.738281 7.726562 18.738281 7.179688 C 18.738281 5.945312 17.734375 4.941406 16.5 4.941406 C 15.265625 4.941406 14.261719 5.945312 14.261719 7.179688 C 14.261719 7.726562 14.457031 8.226562 14.78125 8.613281 C 13.546875 10.742188 12.085938 11.957031 10.445312 12.230469 C 8.078125 12.625 5.722656 11.003906 4.367188 9.820312 C 4.4375 9.601562 4.480469 9.363281 4.480469 9.121094 C 4.480469 7.882812 3.472656 6.878906 2.238281 6.878906 C 1.003906 6.878906 0 7.882812 0 9.117188 C 0 10.21875 0.796875 11.132812 1.839844 11.324219 L 3.851562 17.277344 C 3.394531 17.617188 3.097656 18.160156 3.097656 18.773438 C 3.097656 19.597656 3.640625 20.300781 4.386719 20.542969 L 4.386719 24.429688 C 3.640625 24.671875 3.097656 25.375 3.097656 26.199219 C 3.097656 27.226562 3.933594 28.058594 4.957031 28.058594 L 22.589844 28.058594 C 22.90625 28.058594 23.160156 27.804688 23.160156 27.492188 C 23.160156 27.175781 22.90625 26.921875 22.589844 26.921875 L 4.957031 26.921875 C 4.558594 26.921875 4.238281 26.597656 4.238281 26.199219 C 4.238281 25.804688 4.558594 25.480469 4.957031 25.480469 L 28.042969 25.480469 C 28.441406 25.480469 28.761719 25.804688 28.761719 26.199219 C 28.761719 26.597656 28.441406 26.921875 28.042969 26.921875 L 24.867188 26.921875 C 24.550781 26.921875 24.296875 27.175781 24.296875 27.492188 C 24.296875 27.804688 24.550781 28.058594 24.867188 28.058594 L 28.042969 28.058594 C 29.066406 28.058594 29.902344 27.226562 29.902344 26.199219 C 29.902344 25.375 29.359375 24.671875 28.613281 24.429688 L 28.613281 20.539062 C 29.359375 20.300781 29.902344 19.597656 29.902344 18.769531 C 29.902344 18.160156 29.605469 17.617188 29.148438 17.277344 L 31.160156 11.320312 C 32.203125 11.132812 33 10.21875 33 9.117188 C 33 7.882812 31.996094 6.878906 30.761719 6.878906 Z M 16.5 6.078125 C 17.109375 6.078125 17.601562 6.570312 17.601562 7.179688 C 17.601562 7.816406 17.042969 8.324219 16.417969 8.277344 C 15.851562 8.230469 15.398438 7.75 15.398438 7.179688 C 15.398438 6.570312 15.890625 6.078125 16.5 6.078125 Z M 2.558594 10.167969 C 2.457031 10.203125 2.347656 10.222656 2.238281 10.222656 C 1.632812 10.222656 1.136719 9.726562 1.136719 9.121094 C 1.136719 8.511719 1.632812 8.015625 2.238281 8.015625 C 2.847656 8.015625 3.339844 8.511719 3.339844 9.121094 C 3.339844 9.589844 3 10.023438 2.558594 10.167969 Z M 27.472656 24.34375 L 5.527344 24.34375 L 5.527344 20.628906 L 27.472656 20.628906 Z M 30.761719 10.222656 C 30.160156 10.222656 29.660156 9.71875 29.660156 9.117188 C 29.660156 8.511719 30.152344 8.015625 30.761719 8.015625 C 31.367188 8.015625 31.863281 8.511719 31.863281 9.117188 C 31.863281 9.726562 31.367188 10.222656 30.761719 10.222656 Z M 30.761719 10.222656 "/>
</g>
</svg>
