<?xml version="1.0" standalone="no"?>
<!DOCTYPE svg PUBLIC "-//W3C//DTD SVG 20010904//EN"
 "http://www.w3.org/TR/2001/REC-SVG-20010904/DTD/svg10.dtd">
<svg version="1.0" xmlns="http://www.w3.org/2000/svg"
 width="512.000000pt" height="512.000000pt" viewBox="0 0 512.000000 512.000000"
 preserveAspectRatio="xMidYMid meet">

<g transform="translate(0.000000,512.000000) scale(0.100000,-0.100000)"
fill="#000000" stroke="none">
<path d="M2383 4948 l-173 -173 50 -150 c50 -152 52 -171 24 -226 -12 -23
-117 -89 -143 -89 -6 0 -22 17 -36 38 l-25 38 20 52 c37 98 18 193 -55 266
-130 129 -353 78 -408 -95 -21 -64 -21 -91 -1 -158 31 -105 144 -179 255 -169
48 5 51 4 80 -34 l31 -38 -51 -56 c-133 -145 -200 -298 -226 -516 l-6 -48
-125 0 -124 0 0 135 c0 132 0 135 30 182 123 194 23 442 -201 499 -193 50
-388 -92 -406 -295 -6 -68 14 -150 52 -205 l25 -37 0 -778 0 -778 -26 -24
c-56 -52 -54 -17 -54 -981 l0 -890 -46 -45 c-78 -79 -124 -196 -124 -318 l0
-55 1835 0 1835 0 0 68 c0 123 -38 219 -120 304 l-50 52 0 893 c0 968 3 919
-54 972 l-26 24 0 777 c0 777 0 777 21 804 36 45 59 121 59 191 0 131 -68 238
-188 297 -58 29 -76 33 -142 32 -98 -1 -175 -34 -242 -105 -66 -70 -91 -141
-86 -240 4 -64 10 -86 41 -143 l37 -67 0 -134 0 -135 -125 0 -125 0 0 35 c0
57 -29 183 -61 266 -36 94 -87 175 -162 255 l-56 61 28 38 c27 37 28 37 102
39 47 1 85 8 105 19 130 69 180 211 118 335 -93 186 -349 184 -447 -3 -26 -51
-29 -155 -4 -202 23 -43 22 -53 -12 -93 l-29 -35 -56 29 c-73 37 -106 76 -106
124 0 20 21 99 46 176 l46 138 -173 174 -174 174 -172 -172z m256 -142 l73
-73 -37 -114 c-45 -139 -45 -205 1 -289 35 -65 76 -101 166 -146 132 -67 213
-140 287 -260 65 -107 90 -210 91 -376 l0 -128 210 0 210 0 0 -553 0 -554 -26
-24 c-53 -50 -54 -54 -54 -389 0 -170 -2 -310 -4 -310 -2 0 -32 14 -66 31 -41
20 -90 34 -147 42 -77 11 -84 13 -80 32 3 11 25 99 50 195 104 399 157 797
157 1187 l0 173 -204 0 -203 0 -6 173 c-4 140 -9 183 -26 231 -60 169 -188
287 -358 331 -210 55 -449 -51 -550 -242 -54 -101 -63 -150 -63 -330 l0 -163
-212 0 -211 0 6 -232 c11 -441 78 -877 195 -1279 l20 -65 -88 -11 c-61 -8
-104 -20 -141 -40 -30 -15 -57 -29 -61 -31 -5 -2 -8 122 -8 277 0 321 -6 364
-56 413 l-34 33 0 553 0 552 210 0 210 0 0 109 c0 137 19 239 63 333 66 140
168 245 310 318 199 103 246 224 173 445 l-33 100 76 78 c41 42 78 77 81 77 3
0 38 -33 79 -74z m-714 -221 c53 -52 18 -135 -56 -135 -71 0 -105 85 -54 135
15 16 36 25 55 25 19 0 40 -9 55 -25z m1369 4 c19 -15 26 -29 26 -57 0 -75
-83 -110 -135 -57 -73 72 28 178 109 114z m-1990 -362 c152 -86 78 -321 -97
-304 -141 13 -200 187 -95 284 51 48 129 56 192 20z m2660 3 c59 -28 90 -79
90 -145 0 -151 -182 -220 -286 -109 -121 132 34 333 196 254z m-1259 -432 c50
-26 121 -94 145 -139 32 -59 40 -125 40 -351 l0 -228 209 0 209 0 -4 -102
c-20 -446 -84 -843 -200 -1225 l-25 -83 -523 0 c-490 0 -524 1 -529 18 -134
457 -198 823 -214 1220 l-6 172 205 0 206 0 3 248 4 247 33 67 c39 79 101 138
176 168 74 29 201 24 271 -12z m-1397 -752 l-3 -711 -82 -3 -83 -3 0 713 0
713 85 1 85 0 -2 -710z m2662 -3 l0 -713 -80 0 -80 0 0 713 0 712 80 0 80 0 0
-712z m-2580 -958 l0 -85 -165 0 -165 0 0 85 0 85 165 0 165 0 0 -85z m2670 0
l0 -85 -170 0 -170 0 0 78 c0 43 3 82 7 85 3 4 80 7 170 7 l163 0 0 -85z
m-2670 -920 l0 -665 -142 0 c-79 0 -153 -3 -165 -6 l-23 -6 0 671 0 671 165 0
165 0 0 -665z m2670 -6 l0 -671 -22 6 c-13 3 -89 6 -170 6 l-148 0 0 665 0
665 170 0 170 0 0 -671z m-679 329 c66 -22 133 -83 155 -140 6 -17 -45 -18
-979 -18 -970 0 -985 0 -980 19 13 50 95 121 163 142 43 13 1602 11 1641 -3z
m177 -405 l3 -83 -1001 0 -1000 0 0 85 0 85 998 -2 997 -3 3 -82z m2 -418 l0
-165 -1000 0 -1000 0 0 165 0 165 1000 0 1000 0 0 -165z m515 -354 c44 -20 99
-71 121 -113 l15 -28 -1651 0 c-907 0 -1650 3 -1650 8 0 35 85 118 142 139 25
9 399 12 1508 12 1408 1 1477 0 1515 -18z"/>
</g>
</svg>
